<svg width="269" height="48" viewBox="0 0 269 48" fill="none" xmlns="http://www.w3.org/2000/svg">
<path d="M14.592 7.83744C12.1229 7.83641 9.75408 8.81445 8.00491 10.5571C6.25574 12.2998 5.26892 14.665 5.26079 17.1341C5.26079 23.7811 10.4218 29.8061 14.7456 33.7229C17.586 36.2546 20.6574 38.5147 23.9194 40.4736C27.182 38.5156 30.2534 36.2555 33.0931 33.7229C37.4208 29.8253 42.5779 23.7811 42.5779 17.1341C42.5698 14.665 41.583 12.2998 39.8338 10.5571C38.0846 8.81445 35.7158 7.83641 33.2467 7.83744C31.4591 7.93129 29.7339 8.52628 28.2685 9.55438C26.8031 10.5825 25.6566 12.0022 24.96 13.6512C24.8874 13.8704 24.7476 14.0611 24.5605 14.1963C24.3733 14.3314 24.1483 14.4042 23.9174 14.4042C23.6866 14.4042 23.4616 14.3314 23.2744 14.1963C23.0872 14.0611 22.9474 13.8704 22.8749 13.6512C22.179 12.0025 21.0331 10.5829 19.5684 9.5548C18.1036 8.52668 16.3791 7.93155 14.592 7.83744ZM23.9194 42.8314C23.7325 42.8321 23.5486 42.7845 23.3856 42.6931C19.7842 40.6045 16.4065 38.152 13.3056 35.3741C10.6181 33.0195 8.26766 30.306 6.32063 27.3101C4.29372 24.2952 3.16692 20.7657 3.07199 17.1341C3.08215 14.0854 4.30035 11.1651 6.45967 9.01302C8.61899 6.8609 11.5433 5.65246 14.592 5.65248C16.9201 5.71357 19.1701 6.50477 21.024 7.91424C22.154 8.7298 23.1337 9.73547 23.9194 10.8864C24.7051 9.73547 25.6847 8.7298 26.8147 7.91424C28.6686 6.50477 30.9186 5.71357 33.2467 5.65248C36.2954 5.65246 39.2197 6.8609 41.379 9.01302C43.5384 11.1651 44.7565 14.0854 44.7667 17.1341C44.6716 20.771 43.5435 24.3058 41.5142 27.3254C39.5672 30.3214 37.2168 33.0349 34.5293 35.3894C31.4297 38.1673 28.0533 40.6198 24.4531 42.7085C24.2887 42.7998 24.1036 42.8474 23.9155 42.8467" fill="#E41F25"/>
<path d="M14.592 7.83744C12.1229 7.83641 9.75408 8.81445 8.00491 10.5571C6.25574 12.2998 5.26892 14.665 5.26079 17.1341C5.26079 23.7811 10.4218 29.8061 14.7456 33.7229C17.586 36.2546 20.6574 38.5147 23.9194 40.4736C27.182 38.5156 30.2534 36.2555 33.0931 33.7229C37.4208 29.8253 42.5779 23.7811 42.5779 17.1341C42.5698 14.665 41.583 12.2998 39.8338 10.5571C38.0846 8.81445 35.7158 7.83641 33.2467 7.83744C31.4591 7.93129 29.7339 8.52627 28.2685 9.55438C26.8031 10.5825 25.6566 12.0022 24.96 13.6512C24.8874 13.8704 24.7476 14.0611 24.5605 14.1963C24.3733 14.3314 24.1483 14.4042 23.9174 14.4042C23.6866 14.4042 23.4616 14.3314 23.2744 14.1963C23.0872 14.0611 22.9474 13.8704 22.8749 13.6512C22.179 12.0025 21.0331 10.5829 19.5684 9.5548C18.1036 8.52668 16.3791 7.93155 14.592 7.83744ZM23.9194 42.8314C23.7325 42.8321 23.5486 42.7845 23.3856 42.6931C19.7842 40.6045 16.4065 38.152 13.3056 35.3741C10.6181 33.0195 8.26766 30.306 6.32063 27.3101C4.29372 24.2952 3.16692 20.7657 3.07199 17.1341C3.08215 14.0854 4.30035 11.1651 6.45967 9.01302C8.61899 6.8609 11.5433 5.65246 14.592 5.65248C16.9201 5.71357 19.1701 6.50477 21.024 7.91424C22.154 8.7298 23.1337 9.73547 23.9194 10.8864C24.7051 9.73547 25.6847 8.7298 26.8147 7.91424C28.6686 6.50477 30.9186 5.71357 33.2467 5.65248C36.2954 5.65246 39.2197 6.8609 41.379 9.01302C43.5384 11.1651 44.7565 14.0854 44.7667 17.1341C44.6716 20.771 43.5435 24.3058 41.5142 27.3254C39.5672 30.3214 37.2168 33.0349 34.5293 35.3894C31.4297 38.1673 28.0533 40.6198 24.4531 42.7085C24.2884 42.7939 24.1048 42.8361 23.9194 42.8314V42.8314Z" stroke="#E41F25" stroke-width="1.06" stroke-miterlimit="10"/>
</svg>
