<svg width="269" height="48" viewBox="0 0 269 48" fill="none" xmlns="http://www.w3.org/2000/svg">
<path d="M31.3392 26.0982H28.0291V17.6041H31.3507L31.3392 26.0982ZM33.8928 28.118H36.8957V39.3538H33.8928V28.118ZM33.3552 17.6041C36.1162 17.6041 38.8042 17.5311 41.4883 17.6271C42.5321 17.6606 43.5229 18.0952 44.2545 18.8404C44.9861 19.5856 45.4024 20.5842 45.4166 21.6284C45.4896 23.9324 44.0573 25.8524 41.7533 26.006C39 26.1942 36.2275 26.0751 33.4627 26.0905C33.4397 26.0905 33.4166 26.0636 33.3552 26.0252V17.6041ZM16.0099 36.4201V7.34744C16.1558 7.45496 16.2365 7.50488 16.3018 7.56632C19.4326 10.4796 22.5558 13.398 25.6714 16.3215C25.8668 16.5432 25.9747 16.8285 25.9747 17.1241C25.9978 20.2524 25.9978 23.3794 25.9747 26.5052C25.9624 26.8487 25.826 27.1762 25.5907 27.4268C24.1891 28.79 22.7491 30.1148 21.3206 31.455C19.5811 33.0716 17.8608 34.6882 16.0099 36.4201ZM31.919 28.0681V29.3545C31.919 32.8719 31.919 36.3868 31.919 39.8991C31.919 41.0857 32.2109 41.3775 33.3629 41.3814C34.7478 41.3814 36.1341 41.3814 37.5216 41.3814C38.6122 41.3814 38.9309 41.0511 38.9309 39.9337C38.9309 36.2882 38.9309 32.6441 38.9309 29.0012V28.045C39.8333 28.045 40.6742 28.0834 41.5075 28.045C42.3963 27.9982 43.2647 27.7608 44.0536 27.3488C44.8425 26.9369 45.5336 26.36 46.08 25.6574C46.6263 24.9548 47.0151 24.1429 47.22 23.2768C47.425 22.4107 47.4411 21.5106 47.2675 20.6377C46.6954 17.6962 44.1725 15.6457 40.9968 15.6111C38.9155 15.5804 36.8381 15.6111 34.7568 15.6111C32.6755 15.6111 30.5981 15.6111 28.5206 15.6111C28.2813 15.6243 28.0419 15.5866 27.8182 15.5005C27.5945 15.4145 27.3916 15.2821 27.2227 15.1119C23.5056 11.5996 19.7718 8.09624 16.0214 4.60184C15.6374 4.21784 15.2534 3.80696 14.6122 4.0988C13.9709 4.39064 13.9901 4.91288 13.9901 5.4812C13.9901 16.3868 13.9901 27.2924 13.9901 38.198C13.9901 38.2748 13.9632 38.367 13.9901 38.4284C14.1821 38.8124 14.3011 39.3961 14.6122 39.5343C14.8226 39.5792 15.0406 39.5742 15.2487 39.5195C15.4568 39.4648 15.6491 39.362 15.8102 39.2194C19.2163 36.0975 22.6531 33.0025 25.9094 29.7577C27.1958 28.4828 28.4899 27.7724 30.2909 28.0566C30.8329 28.0955 31.377 28.0955 31.919 28.0566" fill="#E41F25"/>
<path d="M31.3392 26.0982H28.0291V17.6041H31.3507L31.3392 26.0982ZM33.8928 28.118H36.8957V39.3538H33.8928V28.118ZM33.3552 17.6041C36.1162 17.6041 38.8042 17.5311 41.4883 17.6271C42.5321 17.6606 43.5229 18.0952 44.2545 18.8404C44.9861 19.5856 45.4024 20.5842 45.4166 21.6284C45.4896 23.9324 44.0573 25.8524 41.7533 26.006C39 26.1942 36.2275 26.0751 33.4627 26.0905C33.4397 26.0905 33.4166 26.0636 33.3552 26.0252V17.6041ZM16.0099 36.4201V7.34744C16.1558 7.45496 16.2365 7.50488 16.3018 7.56632C19.4326 10.4796 22.5558 13.398 25.6714 16.3215C25.8668 16.5432 25.9747 16.8285 25.9747 17.1241C25.9978 20.2524 25.9978 23.3794 25.9747 26.5052C25.9624 26.8487 25.826 27.1762 25.5907 27.4268C24.1891 28.79 22.7491 30.1148 21.3206 31.455C19.5811 33.0716 17.8608 34.6882 16.0099 36.4201ZM31.919 28.0681V29.3545C31.919 32.8719 31.919 36.3868 31.919 39.8991C31.919 41.0857 32.2109 41.3775 33.3629 41.3814C34.7478 41.3814 36.1341 41.3814 37.5216 41.3814C38.6122 41.3814 38.9309 41.0511 38.9309 39.9337C38.9309 36.2882 38.9309 32.6441 38.9309 29.0012V28.045C39.8333 28.045 40.6742 28.0834 41.5075 28.045C42.3963 27.9982 43.2647 27.7608 44.0536 27.3488C44.8425 26.9369 45.5336 26.36 46.08 25.6574C46.6263 24.9548 47.0151 24.1429 47.22 23.2768C47.425 22.4107 47.4411 21.5106 47.2675 20.6377C46.6954 17.6962 44.1725 15.6457 40.9968 15.6111C38.9155 15.5804 36.8381 15.6111 34.7568 15.6111C32.6755 15.6111 30.5981 15.6111 28.5206 15.6111C28.2813 15.6243 28.0419 15.5866 27.8182 15.5005C27.5945 15.4145 27.3916 15.2821 27.2227 15.1119C23.5056 11.5996 19.7718 8.09624 16.0214 4.60184C15.6374 4.21784 15.2534 3.80696 14.6122 4.0988C13.9709 4.39064 13.9901 4.91288 13.9901 5.4812C13.9901 16.3868 13.9901 27.2924 13.9901 38.198C13.9901 38.2748 13.9632 38.367 13.9901 38.4284C14.1821 38.8124 14.3011 39.3961 14.6122 39.5343C14.8226 39.5792 15.0406 39.5742 15.2487 39.5195C15.4568 39.4648 15.6491 39.362 15.8102 39.2194C19.2163 36.0975 22.6531 33.0025 25.9094 29.7577C27.1958 28.4828 28.4899 27.7724 30.2909 28.0566C30.8326 28.0993 31.3767 28.1032 31.919 28.0681Z" stroke="#E41F25" stroke-width="0.53" stroke-miterlimit="10"/>
<path d="M3 21.2982C3.06912 25.069 3.5184 28.4098 4.8624 31.5894C5.21952 32.4342 5.71872 32.653 6.36384 32.2844C6.46676 32.2428 6.56032 32.1811 6.63905 32.1028C6.71777 32.0246 6.78007 31.9314 6.82228 31.8287C6.86449 31.726 6.88576 31.616 6.88485 31.505C6.88394 31.394 6.86086 31.2843 6.81696 31.1823C6.54432 30.4143 6.21024 29.6886 6.01056 28.9167C4.60512 23.4678 4.60512 18.0649 6.59808 12.735C6.65184 12.589 6.71328 12.4431 6.7632 12.2972C6.99744 11.5868 6.81312 11.0876 6.21792 10.8994C5.62272 10.7113 5.16576 10.9916 4.90464 11.5676C3.97422 13.7678 3.39376 16.1 3.18432 18.4796C3.06912 19.5241 3.04224 20.5916 3 21.2982Z" fill="#E41F25"/>
<path d="M3 21.2982C3.06912 25.069 3.5184 28.4098 4.8624 31.5894C5.21952 32.4342 5.71872 32.653 6.36384 32.2844C6.46676 32.2428 6.56032 32.1811 6.63905 32.1028C6.71777 32.0246 6.78007 31.9314 6.82228 31.8287C6.86449 31.726 6.88576 31.616 6.88485 31.505C6.88394 31.394 6.86086 31.2843 6.81696 31.1823C6.54432 30.4143 6.21024 29.6886 6.01056 28.9167C4.60512 23.4678 4.60512 18.0649 6.59808 12.735C6.65184 12.589 6.71328 12.4431 6.7632 12.2972C6.99744 11.5868 6.81312 11.0876 6.21792 10.8994C5.62272 10.7113 5.16576 10.9916 4.90464 11.5676C3.97422 13.7678 3.39376 16.1 3.18432 18.4796C3.06912 19.5241 3.04224 20.5916 3 21.2982Z" stroke="#E41F25" stroke-width="0.53" stroke-miterlimit="10"/>
<path d="M6.76704 21.7935C6.8592 23.6482 6.99744 25.5337 7.79616 27.3078C8.15712 28.1103 8.54112 28.3522 9.15168 28.1218C9.76225 27.8914 9.94656 27.3769 9.64704 26.5551C8.49308 23.4869 8.49308 20.104 9.64704 17.0358C9.95808 16.1756 9.76609 15.6073 9.09793 15.4383C8.42976 15.2694 8.11104 15.5804 7.86528 16.1295C7.136 17.9284 6.76553 19.8525 6.77472 21.7935" fill="#E41F25"/>
<path d="M6.76705 21.7935C6.85921 23.6482 6.99745 25.5337 7.79617 27.3078C8.15713 28.1103 8.54113 28.3522 9.15169 28.1218C9.76225 27.8914 9.94657 27.3769 9.64705 26.5551C8.49308 23.4869 8.49308 20.104 9.64705 17.0358C9.95809 16.1756 9.76609 15.6073 9.09793 15.4383C8.42977 15.2694 8.11105 15.5804 7.86529 16.1295C7.13338 17.9278 6.7603 19.852 6.76705 21.7935V21.7935Z" stroke="#E41F25" stroke-width="0.53" stroke-miterlimit="10"/>
<path d="M10.5303 21.8742C10.6531 22.3734 10.7376 22.8649 10.9143 23.3334C11.1178 23.9209 11.6016 24.0438 12.1469 23.8902C12.6922 23.7366 12.8573 23.3372 12.8266 22.7919C12.7843 22.1706 12.7843 21.547 12.8266 20.9257C12.8815 20.6757 12.8352 20.4141 12.6977 20.1982C12.5603 19.9823 12.3429 19.8297 12.0931 19.7737C11.9742 19.7261 11.8463 19.705 11.7183 19.7118C11.5904 19.7186 11.4654 19.7531 11.3522 19.8131C11.2389 19.873 11.1401 19.9568 11.0624 20.0588C10.9848 20.1607 10.9303 20.2783 10.9027 20.4034C10.7453 20.8758 10.6608 21.3673 10.5456 21.8665" fill="#E41F25"/>
<path d="M10.5303 21.8742C10.6531 22.3734 10.7376 22.8649 10.9143 23.3334C11.1178 23.9209 11.6016 24.0438 12.1469 23.8902C12.6922 23.7366 12.8573 23.3372 12.8266 22.7919C12.7843 22.1706 12.7843 21.547 12.8266 20.9257C12.8815 20.6757 12.8352 20.4141 12.6977 20.1982C12.5603 19.9823 12.3429 19.8297 12.0931 19.7737C11.9742 19.7261 11.8463 19.705 11.7183 19.7118C11.5904 19.7186 11.4654 19.7531 11.3522 19.8131C11.2389 19.873 11.1401 19.9568 11.0624 20.0588C10.9848 20.1607 10.9303 20.2783 10.9027 20.4034C10.7491 20.8834 10.6455 21.375 10.5303 21.8742Z" stroke="#E41F25" stroke-width="0.53" stroke-miterlimit="10"/>
</svg>
