<svg width="269" height="48" viewBox="0 0 269 48" fill="none" xmlns="http://www.w3.org/2000/svg">
<path d="M21.7115 7.86688C18.4017 7.86004 15.1643 8.83525 12.4091 10.6691C9.65377 12.5029 7.50444 15.1129 6.23311 18.1688C4.96178 21.2246 4.62559 24.589 5.2671 27.836C5.90861 31.083 7.49897 34.0667 9.83691 36.4095C12.1748 38.7522 15.1553 40.3488 18.4009 40.997C21.6466 41.6452 25.0116 41.316 28.0701 40.051C31.1286 38.786 33.743 36.642 35.5825 33.8906C37.4221 31.1391 38.404 27.9037 38.404 24.5939C38.4065 22.3995 37.9767 20.2261 37.1392 18.1978C36.3016 16.1695 35.0727 14.326 33.5226 12.7727C31.9725 11.2194 30.1316 9.98668 28.105 9.14493C26.0785 8.30318 23.9059 7.8689 21.7115 7.86688V7.86688ZM21.7115 43.1949C17.4024 43.2107 13.2208 41.7332 9.87809 39.0138C6.53535 36.2945 4.23786 32.5011 3.37638 28.2789C2.51491 24.0567 3.14264 19.6665 5.15282 15.8549C7.16301 12.0434 10.4315 9.04585 14.4024 7.3722C18.3732 5.69856 22.8013 5.45215 26.9333 6.67489C31.0654 7.89763 34.6462 10.514 37.0669 14.079C39.4876 17.644 40.5985 21.9375 40.2108 26.2292C39.8231 30.5209 37.9607 34.5457 34.9403 37.6192C34.9057 37.6614 34.8635 37.6998 34.8251 37.7382C33.1087 39.4686 31.0655 40.8407 28.8143 41.7748C26.5631 42.7089 24.1488 43.1864 21.7115 43.1795" fill="#E41F25"/>
<path d="M21.7115 7.86688C18.4017 7.86004 15.1643 8.83525 12.4091 10.6691C9.65377 12.5029 7.50444 15.1129 6.23311 18.1688C4.96178 21.2246 4.62559 24.589 5.2671 27.836C5.90861 31.083 7.49897 34.0667 9.83691 36.4095C12.1748 38.7522 15.1553 40.3488 18.4009 40.997C21.6466 41.6452 25.0116 41.316 28.0701 40.051C31.1286 38.786 33.743 36.642 35.5825 33.8906C37.4221 31.1391 38.404 27.9037 38.404 24.5939C38.4065 22.3995 37.9767 20.2261 37.1392 18.1978C36.3016 16.1695 35.0727 14.326 33.5226 12.7727C31.9725 11.2194 30.1316 9.98668 28.105 9.14493C26.0785 8.30318 23.9059 7.8689 21.7115 7.86688V7.86688ZM21.7115 43.1949C17.4024 43.2107 13.2208 41.7332 9.87809 39.0138C6.53535 36.2945 4.23786 32.5011 3.37638 28.2789C2.51491 24.0567 3.14264 19.6665 5.15282 15.8549C7.16301 12.0434 10.4315 9.04585 14.4024 7.3722C18.3732 5.69856 22.8013 5.45215 26.9333 6.67489C31.0654 7.89763 34.6462 10.514 37.0669 14.079C39.4876 17.644 40.5985 21.9375 40.2108 26.2292C39.8231 30.5209 37.9607 34.5457 34.9403 37.6192C34.9057 37.6614 34.8635 37.6998 34.8251 37.7382C33.1087 39.4686 31.0655 40.8407 28.8143 41.7748C26.5631 42.7089 24.1488 43.1864 21.7115 43.1795V43.1949Z" stroke="#E41F25" stroke-width="1.32" stroke-miterlimit="10"/>
<path d="M14.3118 22.0864L21.4273 31.8246L44.2369 4" stroke="#E41F25" stroke-width="5.29"/>
</svg>
